<?xml version="1.0" encoding="UTF-8" standalone="no"?>
<!-- Created with Inkscape (http://www.inkscape.org/) -->

<svg
   xmlns:dc="http://purl.org/dc/elements/1.1/"
   xmlns:cc="http://creativecommons.org/ns#"
   xmlns:rdf="http://www.w3.org/1999/02/22-rdf-syntax-ns#"
   xmlns:svg="http://www.w3.org/2000/svg"
   xmlns="http://www.w3.org/2000/svg"
   xmlns:sodipodi="http://sodipodi.sourceforge.net/DTD/sodipodi-0.dtd"
   xmlns:inkscape="http://www.inkscape.org/namespaces/inkscape"
   width="256"
   height="600"
   id="svg6900"
   version="1.1"
   inkscape:version="0.48.4 r9939"
   sodipodi:docname="Nouveau document 71">
  <defs
     id="defs6902" />
  <sodipodi:namedview
     id="base"
     pagecolor="#ffffff"
     bordercolor="#666666"
     borderopacity="1.0"
     inkscape:pageopacity="0.0"
     inkscape:pageshadow="2"
     inkscape:zoom="0.7"
     inkscape:cx="105.66418"
     inkscape:cy="358.81821"
     inkscape:document-units="px"
     inkscape:current-layer="layer1"
     showgrid="false"
     inkscape:window-width="1600"
     inkscape:window-height="838"
     inkscape:window-x="-8"
     inkscape:window-y="-8"
     inkscape:window-maximized="1" />
  <metadata
     id="metadata6905">
    <rdf:RDF>
      <cc:Work
         rdf:about="">
        <dc:format>image/svg+xml</dc:format>
        <dc:type
           rdf:resource="http://purl.org/dc/dcmitype/StillImage" />
        <dc:title></dc:title>
      </cc:Work>
    </rdf:RDF>
  </metadata>
  <g
     inkscape:label="Calque 1"
     inkscape:groupmode="layer"
     id="layer1"
     transform="translate(0,-452.36218)">
    <path
       style="color:#000000;fill:#960000;fill-opacity:1;stroke:#000000;stroke-width:0.35896656px;stroke-linecap:butt;stroke-linejoin:miter;stroke-miterlimit:4;stroke-opacity:1;stroke-dasharray:none;stroke-dashoffset:0;marker:none;visibility:visible;display:inline;overflow:visible;enable-background:accumulate"
       d="m 127.99785,1010.4072 c 0,0 -12.70076,-23.5761 24.96353,-39.89786 0,0 36.35036,-16.77537 45.10952,4.53382 0,0 11.82482,11.33455 -9.63507,33.09714 0,0 -28.46717,34.4573 -60.43798,2.2669 z"
       id="path4585-1"
       inkscape:connector-curvature="0" />
    <path
       style="color:#000000;fill:none;stroke:#640000;stroke-width:4.21070385;stroke-linecap:butt;stroke-linejoin:miter;stroke-miterlimit:4;stroke-opacity:1;stroke-dasharray:none;stroke-dashoffset:0;marker:none;visibility:visible;display:inline;overflow:visible;enable-background:accumulate"
       d="m 140.26062,999.97944 c 0,0 38.54018,4.98716 43.3577,-17.68216"
       id="path4587-2"
       inkscape:connector-curvature="0" />
    <path
       style="color:#000000;fill:#960000;fill-opacity:1;stroke:#000000;stroke-width:0.28228211px;stroke-linecap:butt;stroke-linejoin:miter;stroke-miterlimit:4;stroke-opacity:1;stroke-dasharray:none;stroke-dashoffset:0;marker:none;visibility:visible;display:inline;overflow:visible;enable-background:accumulate"
       d="m 118.54839,556.75248 c 0,0 -11.91564,-15.53974 23.42035,-26.29803 0,0 34.10329,-11.0571 42.32099,2.98842 0,0 11.09384,7.47104 -9.03946,21.8154 0,0 -26.70741,22.71192 -56.70188,1.49421 z"
       id="path4585-1-4"
       inkscape:connector-curvature="0" />
    <path
       style="color:#000000;fill:none;stroke:#640000;stroke-width:3.31118965;stroke-linecap:butt;stroke-linejoin:miter;stroke-miterlimit:4;stroke-opacity:1;stroke-dasharray:none;stroke-dashoffset:0;marker:none;visibility:visible;display:inline;overflow:visible;enable-background:accumulate"
       d="m 130.05311,551.12161 c 0,0 36.15774,3.28725 40.67744,-11.65481"
       id="path4587-2-9"
       inkscape:connector-curvature="0" />
    <path
       style="color:#000000;fill:#960000;fill-opacity:1;stroke:#000000;stroke-width:0.30133083px;stroke-linecap:butt;stroke-linejoin:miter;stroke-miterlimit:4;stroke-opacity:1;stroke-dasharray:none;stroke-dashoffset:0;marker:none;visibility:visible;display:inline;overflow:visible;enable-background:accumulate"
       d="m 209.48606,808.58574 c 0,0 21.62537,0.45939 19.79788,-21.59093 0,0 0,-11.02519 -25.8895,-20.21283 0,0 -13.70624,-6.43133 -25.2804,-3.67504 0,0 -11.57415,2.75629 -10.35579,18.37527 0,0 -0.3046,14.70022 13.40162,20.21282 17.05663,10.56577 29.8491,5.51254 28.32619,6.89071 z"
       id="path4603-4"
       inkscape:connector-curvature="0" />
    <path
       style="color:#000000;fill:none;stroke:#640000;stroke-width:3.50320172;stroke-linecap:butt;stroke-linejoin:miter;stroke-miterlimit:4;stroke-opacity:1;stroke-dasharray:none;stroke-dashoffset:0;marker:none;visibility:visible;display:inline;overflow:visible;enable-background:accumulate"
       d="m 183.90111,774.59148 c 0,0 24.36663,17.91589 36.85453,9.18764"
       id="path4605-5"
       inkscape:connector-curvature="0" />
    <path
       style="color:#000000;fill:#960000;fill-opacity:1;stroke:#000000;stroke-width:0.30442345px;stroke-linecap:butt;stroke-linejoin:miter;stroke-miterlimit:4;stroke-opacity:1;stroke-dasharray:none;stroke-dashoffset:0;marker:none;visibility:visible;display:inline;overflow:visible;enable-background:accumulate"
       d="m 17.641217,864.0912 c 0,0 -13.4573683,6.87642 -4.111967,22.53946 0,0 19.064562,24.83157 42.241113,23.68549 0,0 25.419462,-1.9101 26.540932,-9.16858 0,0 9.34539,-14.1349 -12.70975,-27.88774 0,0 -20.933673,-11.07875 -29.905213,-11.46076 0,0 -20.18605,-1.14605 -22.055115,2.29213 z"
       id="path4595-9-3"
       inkscape:connector-curvature="0" />
    <path
       style="color:#000000;fill:none;stroke:#640000;stroke-width:3.77616167;stroke-linecap:butt;stroke-linejoin:miter;stroke-miterlimit:4;stroke-opacity:1;stroke-dasharray:none;stroke-dashoffset:0;marker:none;visibility:visible;display:inline;overflow:visible;enable-background:accumulate"
       d="m 23.510298,875.67313 c 0,0 32.895744,25.59564 45.605457,19.10125"
       id="path4597-8-8"
       inkscape:connector-curvature="0" />
    <path
       style="color:#000000;fill:#960000;fill-opacity:1;stroke:#000000;stroke-width:0.32486522px;stroke-linecap:butt;stroke-linejoin:miter;stroke-miterlimit:4;stroke-opacity:1;stroke-dasharray:none;stroke-dashoffset:0;marker:none;visibility:visible;display:inline;overflow:visible;enable-background:accumulate"
       d="m 73.350851,675.09387 c 0,0 -18.462713,-7.58414 -29.720427,1.08345 0,0 -17.562091,7.58414 -13.058997,20.58554 0,0 2.701867,15.52945 25.217353,15.89056 0,0 27.468884,1.44464 33.773204,-5.77837 0,0 9.45648,-11.19566 -1.35093,-23.47474 0,0 -12.608656,-7.94527 -14.860203,-8.30644 z"
       id="path6020-6"
       inkscape:connector-curvature="0" />
    <path
       style="color:#000000;fill:none;stroke:#640000;stroke-width:3.12397385;stroke-linecap:butt;stroke-linejoin:miter;stroke-miterlimit:4;stroke-opacity:1;stroke-dasharray:none;stroke-dashoffset:0;marker:none;visibility:visible;display:inline;overflow:visible;enable-background:accumulate"
       d="m 44.531027,691.70675 c 0,0 14.860224,12.2791 31.521672,5.41724"
       id="path6022-9"
       inkscape:connector-curvature="0" />
  </g>
</svg>
