<?xml version="1.0" encoding="UTF-8" standalone="no"?>
<!-- Created with Inkscape (http://www.inkscape.org/) -->

<svg
   xmlns:dc="http://purl.org/dc/elements/1.1/"
   xmlns:cc="http://creativecommons.org/ns#"
   xmlns:rdf="http://www.w3.org/1999/02/22-rdf-syntax-ns#"
   xmlns:svg="http://www.w3.org/2000/svg"
   xmlns="http://www.w3.org/2000/svg"
   xmlns:sodipodi="http://sodipodi.sourceforge.net/DTD/sodipodi-0.dtd"
   xmlns:inkscape="http://www.inkscape.org/namespaces/inkscape"
   width="256"
   height="600"
   id="svg7503"
   version="1.1"
   inkscape:version="0.48.4 r9939"
   sodipodi:docname="globulerougebande2.svg">
  <defs
     id="defs7505" />
  <sodipodi:namedview
     id="base"
     pagecolor="#ffffff"
     bordercolor="#666666"
     borderopacity="1.0"
     inkscape:pageopacity="0.0"
     inkscape:pageshadow="2"
     inkscape:zoom="1.979899"
     inkscape:cx="38.442735"
     inkscape:cy="149.782"
     inkscape:document-units="px"
     inkscape:current-layer="layer1"
     showgrid="false"
     inkscape:window-width="1600"
     inkscape:window-height="838"
     inkscape:window-x="-8"
     inkscape:window-y="-8"
     inkscape:window-maximized="1" />
  <metadata
     id="metadata7508">
    <rdf:RDF>
      <cc:Work
         rdf:about="">
        <dc:format>image/svg+xml</dc:format>
        <dc:type
           rdf:resource="http://purl.org/dc/dcmitype/StillImage" />
        <dc:title></dc:title>
      </cc:Work>
    </rdf:RDF>
  </metadata>
  <g
     inkscape:label="Calque 1"
     inkscape:groupmode="layer"
     id="layer1"
     transform="translate(0,-452.36218)">
    <path
       style="color:#000000;fill:#be3c3c;fill-opacity:1;stroke:none;stroke-width:0.32034882999999997px;stroke-linecap:butt;stroke-linejoin:miter;stroke-miterlimit:4;stroke-opacity:1;stroke-dasharray:none;stroke-dashoffset:0;marker:none;visibility:visible;display:inline;overflow:visible;enable-background:accumulate"
       d="m 15.247715,879.3251 c 0,0 -11.695335,-20.39047 22.987351,-34.50682 0,0 33.472775,-14.50867 41.538535,3.92121 0,0 10.888739,9.80301 -8.87233,28.62502 0,0 -26.213639,29.80136 -55.653556,1.96059 z"
       id="path4585-1"
       inkscape:connector-curvature="0" />
    <path
       style="color:#000000;fill:none;stroke:#8e3c3c;stroke-width:3.75771523000000010;stroke-linecap:butt;stroke-linejoin:miter;stroke-miterlimit:4;stroke-opacity:1;stroke-dasharray:none;stroke-dashoffset:0;marker:none;visibility:visible;display:inline;overflow:visible;enable-background:accumulate"
       d="m 26.539732,870.30635 c 0,0 35.489239,4.31329 39.925389,-15.29293"
       id="path4587-2"
       inkscape:connector-curvature="0" />
    <path
       style="color:#000000;fill:#be3c3c;fill-opacity:1;stroke:none;stroke-width:0.28228210999999997px;stroke-linecap:butt;stroke-linejoin:miter;stroke-miterlimit:4;stroke-opacity:1;stroke-dasharray:none;stroke-dashoffset:0;marker:none;visibility:visible;display:inline;overflow:visible;enable-background:accumulate"
       d="m 156.35833,562.04924 c 0,0 -11.91565,-15.53974 23.42035,-26.29803 0,0 34.10329,-11.0571 42.32099,2.98842 0,0 11.09384,7.47104 -9.03946,21.8154 0,0 -26.70741,22.71192 -56.70188,1.49421 z"
       id="path4585-1-4"
       inkscape:connector-curvature="0" />
    <path
       style="color:#000000;fill:none;stroke:#8e3c3c;stroke-width:3.31118965000000020;stroke-linecap:butt;stroke-linejoin:miter;stroke-miterlimit:4;stroke-opacity:1;stroke-dasharray:none;stroke-dashoffset:0;marker:none;visibility:visible;display:inline;overflow:visible;enable-background:accumulate"
       d="m 167.86305,556.41837 c 0,0 36.15774,3.28725 40.67744,-11.65481"
       id="path4587-2-9"
       inkscape:connector-curvature="0" />
    <path
       style="color:#000000;fill:#be3c3c;fill-opacity:1;stroke:none;stroke-width:0.30133082999999999px;stroke-linecap:butt;stroke-linejoin:miter;stroke-miterlimit:4;stroke-opacity:1;stroke-dasharray:none;stroke-dashoffset:0;marker:none;visibility:visible;display:inline;overflow:visible;enable-background:accumulate"
       d="m 198.04219,797.8825 c 0,0 21.62537,0.45939 19.79788,-21.59093 0,0 0,-11.02519 -25.8895,-20.21283 0,0 -13.70624,-6.43133 -25.2804,-3.67504 0,0 -11.57415,2.75629 -10.35579,18.37527 0,0 -0.3046,14.70022 13.40162,20.21282 17.05663,10.56577 29.8491,5.51254 28.32619,6.89071 z"
       id="path4603-4"
       inkscape:connector-curvature="0" />
    <path
       style="color:#000000;fill:none;stroke:#8e3c3c;stroke-width:3.50320171999999990;stroke-linecap:butt;stroke-linejoin:miter;stroke-miterlimit:4;stroke-opacity:1;stroke-dasharray:none;stroke-dashoffset:0;marker:none;visibility:visible;display:inline;overflow:visible;enable-background:accumulate"
       d="m 172.45724,763.88824 c 0,0 24.36663,17.91589 36.85453,9.18764"
       id="path4605-5"
       inkscape:connector-curvature="0" />
    <path
       style="color:#000000;fill:#be3c3c;fill-opacity:1;stroke:none;stroke-width:0.27220981999999999px;stroke-linecap:butt;stroke-linejoin:miter;stroke-miterlimit:4;stroke-opacity:1;stroke-dasharray:none;stroke-dashoffset:0;marker:none;visibility:visible;display:inline;overflow:visible;enable-background:accumulate"
       d="m 48.651471,714.64253 c 0,0 -11.993685,6.16909 -3.664731,20.22099 0,0 16.991014,22.27733 37.646779,21.24914 0,0 22.654731,-1.71362 23.654221,-8.22548 0,0 8.32894,-12.68094 -11.32738,-25.01913 0,0 -18.656833,-9.93916 -26.652588,-10.28187 0,0 -17.990524,-1.02817 -19.656301,2.05635 z"
       id="path4595-9-3"
       inkscape:connector-curvature="0" />
    <path
       style="color:#000000;fill:none;stroke:#8e3c3c;stroke-width:3.37657403999999990;stroke-linecap:butt;stroke-linejoin:miter;stroke-miterlimit:4;stroke-opacity:1;stroke-dasharray:none;stroke-dashoffset:0;marker:none;visibility:visible;display:inline;overflow:visible;enable-background:accumulate"
       d="m 53.882203,725.03311 c 0,0 29.317856,22.96281 40.645207,17.13645"
       id="path4597-8-8"
       inkscape:connector-curvature="0" />
    <path
       style="color:#000000;fill:#be3c3c;fill-opacity:1;stroke:none;stroke-width:0.32486522000000001px;stroke-linecap:butt;stroke-linejoin:miter;stroke-miterlimit:4;stroke-opacity:1;stroke-dasharray:none;stroke-dashoffset:0;marker:none;visibility:visible;display:inline;overflow:visible;enable-background:accumulate"
       d="m 113.03895,618.75102 c 0,0 -18.462712,-7.58414 -29.720426,1.08345 0,0 -17.562091,7.58414 -13.058997,20.58554 0,0 2.701867,15.52945 25.217353,15.89056 0,0 27.46888,1.44464 33.7732,-5.77837 0,0 9.45649,-11.19566 -1.35093,-23.47474 0,0 -12.60865,-7.94527 -14.8602,-8.30644 z"
       id="path6020-6"
       inkscape:connector-curvature="0" />
    <path
       style="color:#000000;fill:none;stroke:#8e3c3c;stroke-width:3.12397385000000010;stroke-linecap:butt;stroke-linejoin:miter;stroke-miterlimit:4;stroke-opacity:1;stroke-dasharray:none;stroke-dashoffset:0;marker:none;visibility:visible;display:inline;overflow:visible;enable-background:accumulate"
       d="m 84.219127,635.3639 c 0,0 14.860223,12.2791 31.521673,5.41724"
       id="path6022-9"
       inkscape:connector-curvature="0" />
    <path
       style="color:#000000;fill:#be3c3c;fill-opacity:1;stroke:none;stroke-width:0.32486522000000001px;stroke-linecap:butt;stroke-linejoin:miter;stroke-miterlimit:4;stroke-opacity:1;stroke-dasharray:none;stroke-dashoffset:0;marker:none;visibility:visible;display:inline;overflow:visible;enable-background:accumulate"
       d="m 175.5407,892.16564 c 0,0 -18.46271,-7.58414 -29.72042,1.08345 0,0 -17.56209,7.58414 -13.059,20.58554 0,0 2.70187,15.52945 25.21735,15.89055 0,0 27.46888,1.4447 33.7732,-5.7784 0,0 9.45649,-11.19562 -1.35093,-23.4747 0,0 -12.60865,-7.94527 -14.8602,-8.30644 z"
       id="path6020-6-8"
       inkscape:connector-curvature="0" />
    <path
       style="color:#000000;fill:none;stroke:#8e3c3c;stroke-width:3.12397385000000010;stroke-linecap:butt;stroke-linejoin:miter;stroke-miterlimit:4;stroke-opacity:1;stroke-dasharray:none;stroke-dashoffset:0;marker:none;visibility:visible;display:inline;overflow:visible;enable-background:accumulate"
       d="m 146.72088,908.77852 c 0,0 14.86022,12.27906 31.52167,5.41724"
       id="path6022-9-2"
       inkscape:connector-curvature="0" />
    <path
       style="color:#000000;fill:#be3c3c;fill-opacity:1;stroke:none;stroke-width:0.30133082999999999px;stroke-linecap:butt;stroke-linejoin:miter;stroke-miterlimit:4;stroke-opacity:1;stroke-dasharray:none;stroke-dashoffset:0;marker:none;visibility:visible;display:inline;overflow:visible;enable-background:accumulate"
       d="m 94.411942,1001.8473 c 0,0 21.625368,0.4594 19.797878,-21.59088 0,0 0,-11.0252 -25.889498,-20.2129 0,0 -13.70624,-6.4313 -25.280399,-3.675 0,0 -11.574149,2.7563 -10.355789,18.3753 0,0 -0.3046,14.70018 13.401619,20.21278 17.056629,10.5657 29.849099,5.5125 28.326189,6.8907 z"
       id="path4603-4-5-7"
       inkscape:connector-curvature="0" />
    <path
       style="color:#000000;fill:none;stroke:#8e3c3c;stroke-width:3.50320172;stroke-linecap:butt;stroke-linejoin:miter;stroke-miterlimit:4;stroke-opacity:1;stroke-dasharray:none;stroke-dashoffset:0;marker:none;visibility:visible;display:inline;overflow:visible;enable-background:accumulate"
       d="m 63.715593,973.71269 c 0,0 24.366629,17.91589 36.854527,9.18764"
       id="path4605-5-7-0"
       inkscape:connector-curvature="0" />
    <path
       style="color:#000000;fill:#be3c3c;fill-opacity:1;stroke:none;stroke-width:0.27220981999999999px;stroke-linecap:butt;stroke-linejoin:miter;stroke-miterlimit:4;stroke-opacity:1;stroke-dasharray:none;stroke-dashoffset:0;marker:none;visibility:visible;display:inline;overflow:visible;enable-background:accumulate"
       d="m 43.409109,482.20745 c 0,0 -11.993685,6.16909 -3.664731,20.22099 0,0 16.991014,22.27733 37.646779,21.24914 0,0 22.654733,-1.71362 23.654223,-8.22548 0,0 8.32894,-12.68094 -11.327382,-25.01913 0,0 -18.656833,-9.93916 -26.652588,-10.28187 0,0 -17.990524,-1.02817 -19.656301,2.05635 z"
       id="path4595-9-3-8"
       inkscape:connector-curvature="0" />
    <path
       style="color:#000000;fill:none;stroke:#8e3c3c;stroke-width:3.37657404;stroke-linecap:butt;stroke-linejoin:miter;stroke-miterlimit:4;stroke-opacity:1;stroke-dasharray:none;stroke-dashoffset:0;marker:none;visibility:visible;display:inline;overflow:visible;enable-background:accumulate"
       d="m 48.639841,492.59803 c 0,0 29.317856,22.96281 40.645207,17.13645"
       id="path4597-8-8-9"
       inkscape:connector-curvature="0" />
    <path
       style="color:#000000;fill:#be3c3c;fill-opacity:1;stroke:none;stroke-width:0.32034882999999997px;marker:none;visibility:visible;display:inline;overflow:visible;enable-background:accumulate"
       d="m 160.12842,1024.465 c 0,0 -11.69534,-20.3905 22.98735,-34.50683 0,0 33.47277,-14.50867 41.53853,3.92121 0,0 10.88874,9.80302 -8.87233,28.62502 0,0 -26.21364,29.8013 -55.65355,1.9606 z"
       id="path4585-1-2"
       inkscape:connector-curvature="0" />
    <path
       style="color:#000000;fill:#be3c3c;stroke:#8e3c3c;stroke-width:3.75771523000000010;stroke-linecap:butt;stroke-linejoin:miter;stroke-miterlimit:4;stroke-opacity:1;stroke-dasharray:none;stroke-dashoffset:0;marker:none;visibility:visible;display:inline;overflow:visible;enable-background:accumulate;fill-opacity:1"
       d="m 171.42043,1015.4462 c 0,0 35.48924,4.3133 39.92539,-15.2929"
       id="path4587-2-8"
       inkscape:connector-curvature="0" />
  </g>
</svg>
