<?xml version="1.0" encoding="UTF-8" standalone="no"?>
<!-- Generator: Adobe Illustrator 16.0.0, SVG Export Plug-In . SVG Version: 6.00 Build 0)  -->

<svg
   xmlns:dc="http://purl.org/dc/elements/1.1/"
   xmlns:cc="http://creativecommons.org/ns#"
   xmlns:rdf="http://www.w3.org/1999/02/22-rdf-syntax-ns#"
   xmlns:svg="http://www.w3.org/2000/svg"
   xmlns="http://www.w3.org/2000/svg"
   xmlns:sodipodi="http://sodipodi.sourceforge.net/DTD/sodipodi-0.dtd"
   xmlns:inkscape="http://www.inkscape.org/namespaces/inkscape"
   version="1.1"
   id="Calque_1"
   x="0px"
   y="0px"
   width="64px"
   height="64px"
   viewBox="0 0 64 64"
   enable-background="new 0 0 64 64"
   xml:space="preserve"
   inkscape:version="0.48.4 r9939"
   sodipodi:docname="globulefinal.svg"><metadata
   id="metadata16"><rdf:RDF><cc:Work
       rdf:about=""><dc:format>image/svg+xml</dc:format><dc:type
         rdf:resource="http://purl.org/dc/dcmitype/StillImage" /><dc:title /></cc:Work></rdf:RDF></metadata><defs
   id="defs14" /><sodipodi:namedview
   pagecolor="#ffffff"
   bordercolor="#666666"
   borderopacity="1"
   objecttolerance="10"
   gridtolerance="10"
   guidetolerance="10"
   inkscape:pageopacity="0"
   inkscape:pageshadow="2"
   inkscape:window-width="1600"
   inkscape:window-height="838"
   id="namedview12"
   showgrid="false"
   inkscape:zoom="3.6875"
   inkscape:cx="-81.438413"
   inkscape:cy="10.305085"
   inkscape:window-x="-8"
   inkscape:window-y="-8"
   inkscape:window-maximized="1"
   inkscape:current-layer="layer1" />

<g
   transform="translate(-0.32540678,-0.47552805)"
   id="layer1"
   label="Layer 1"
   groupmode="layer"><path
     style="fill-opacity:1;stroke:#000000;stroke-width:2;fill:#fcfcfc"
     inkscape:connector-curvature="0"
     id="path3877-2"
     connector-curvature="0"
     d="m 5.181,24.253 c 0,0 -3.602,4.403 -2.762,7.517 l 0,0 c 0,0 0.6,0.881 -0.12,1.763 0,0 -1.921,3.461 1.5,4.578 0,0 2.401,0.762 1.021,4.225 0,0 -1.682,4.291 1.081,5.111 0,0 2.76,1.645 1.74,3.932 0,0 -0.781,1.939 0.841,3.76 0,0 1.62,2.992 5.221,2.348 0,0 1.082,-1.234 3.782,1.41 0,0 3.242,2.934 8.584,0.938 0,0 5.342,-2.936 7.262,0.354 0,0 2.283,2.23 5.583,1.174 0,0 2.522,-1.41 4.082,0.354 0,0 2.223,2.287 4.263,-0.412 0,0 0.06,-2.523 3.542,-3.346 0,0 7.322,-1.82 7.624,-7.576 0,0 0.3,-1.701 0.959,-2.113 0,0 4.442,-7.398 2.104,-12.209 0,0 -1.143,-1.939 -0.122,-3.349 0,0 1.8,-0.705 0.36,-5.931 0,0 -0.541,-0.588 0.061,-2.349 0,0 1.921,-5.754 -1.923,-6.341 0,0 -1.859,-0.765 -3.001,-4.637 0,0 -0.06,-3.759 -5.163,-5.226 0,0 -4.381,-0.823 -7.202,-4.17 0,0 -1.681,-3.051 -3.783,-2.289 0,0 -0.959,-1.82 -4.621,1.466 0,0 -1.621,1.47 -4.922,0.412 0,0 -3.301,-1.47 -4.443,0.411 0,0 -0.96,1.998 -3.781,0.998 0,0 -2.581,-1.349 -4.203,2.116 0,0 -1.321,2.466 -3.602,1.466 0,0 -5.463,-0.645 -5.282,3.347 0,0 0.961,1.412 -1.561,4.287 0,0 -3.542,2.407 -1.921,4.228 0,-0.003 0.302,2.171 -1.198,3.753 l 0,0 z" /><path
     inkscape:connector-curvature="0"
     id="path3925"
     path-effect="#path-effect3927"
     connector-curvature="0"
     original-d="m 194.50365,922.47619 c 0,0 -72.01011,76.8108 -102.254385,-19.6828 0,0 1.92027,-94.09329 56.647985,-93.61322 0,0 23.0433,-6.24088 48.0068,44.16624 0,0 -22.0831,32.64458 -2.4004,69.12978 z"
     d="m 31.666,45.609 c 0.003,0.004 0.005,0.008 0.009,0.01 0,0.004 10e-4,0.012 10e-4,0.016 -10e-4,0.012 -0.004,0.027 -0.012,0.045 l 0,0 0,0 c -0.011,0.033 -0.036,0.082 -0.074,0.141 l 0,0 c -0.072,0.115 -0.189,0.271 -0.356,0.459 l 0,0 c -0.305,0.361 -0.777,0.846 -1.43,1.412 l 0,0 c -0.581,0.506 -1.31,1.074 -2.209,1.641 l 0,0 c -0.783,0.494 -1.702,0.986 -2.785,1.369 l 0,0 c -0.936,0.33 -2.007,0.568 -3.179,0.553 l 0,0 c -1.098,-0.02 -2.256,-0.287 -3.326,-0.869 l 0,0 c -0.598,-0.33 -1.156,-0.74 -1.667,-1.217 -0.511,-0.475 -0.975,-1.018 -1.385,-1.596 l 0,0 0,0 0,0 c -1.078,-1.549 -1.875,-3.355 -2.487,-5.256 l 0,0 c -10e-4,-0.006 -10e-4,-0.01 -0.002,-0.014 -10e-4,-0.012 -10e-4,-0.021 -0.003,-0.031 -0.004,-0.047 -0.008,-0.094 -0.012,-0.139 0,-0.051 0.002,-0.098 0.004,-0.145 l 0,0 c 0.005,-0.182 0.014,-0.357 0.023,-0.537 0.035,-0.627 0.091,-1.256 0.163,-1.887 l 0,0 c 0.212,-1.879 0.576,-3.818 1.186,-5.748 0.266,-0.84 0.585,-1.684 0.974,-2.514 0.095,-0.201 0.193,-0.4 0.296,-0.597 0.513,-0.994 1.141,-1.939 1.909,-2.774 0.765,-0.833 1.685,-1.53 2.718,-2.015 1.144,-0.524 2.376,-0.751 3.566,-0.728 0.248,-0.01 0.494,-0.02 0.738,-0.029 0.842,0.078 1.602,0.348 2.259,0.692 1.192,0.649 2.136,1.526 2.911,2.429 0.717,0.883 1.321,1.794 1.848,2.694 0.526,0.9 0.974,1.793 1.37,2.655 -0.561,1.377 -1.092,2.65 -1.586,3.811 -0.361,1.311 -0.462,2.543 -0.414,3.604 0.03,0.725 0.129,1.373 0.248,1.934 0.119,0.561 0.258,1.033 0.378,1.414 0.122,0.385 0.225,0.68 0.286,0.881 0.062,0.203 0.079,0.316 0.044,0.336 -0.036,0.018 -0.126,-0.061 -0.259,-0.23 -0.134,-0.17 -0.31,-0.439 -0.508,-0.807 -0.196,-0.371 -0.411,-0.842 -0.608,-1.416 -0.197,-0.574 -0.373,-1.258 -0.475,-2.037 -0.144,-1.16 -0.125,-2.535 0.202,-4.029 0.44,-1.059 0.927,-2.201 1.452,-3.418 -0.416,-0.741 -0.873,-1.5 -1.389,-2.244 C 29.567,30.686 28.988,29.959 28.319,29.285 27.584,28.493 26.767,27.752 25.81,27.274 25.313,27.02 24.799,26.827 24.3,26.8 c -0.225,0.012 -0.452,0.023 -0.68,0.041 -0.973,0 -1.967,0.189 -2.85,0.608 -0.796,0.375 -1.527,0.947 -2.159,1.633 -0.64,0.697 -1.177,1.517 -1.64,2.406 -0.092,0.177 -0.181,0.354 -0.265,0.538 -0.352,0.747 -0.645,1.524 -0.897,2.306 -0.58,1.799 -0.935,3.631 -1.165,5.428 l 0,0 c -0.077,0.604 -0.138,1.201 -0.179,1.795 l 0,0 c -0.013,0.168 -0.023,0.336 -0.031,0.5 l 0,0 c -0.003,0.041 -0.004,0.084 -0.006,0.129 l 0,0 c -0.005,-0.025 -0.011,-0.047 -0.017,-0.07 -10e-4,-0.004 -0.002,-0.01 -0.003,-0.016 0,-0.002 -10e-4,-0.006 -10e-4,-0.006 l 0,0 c 0.547,1.717 1.219,3.303 2.136,4.623 l 0,0 0,0 0,0 c 0.352,0.514 0.734,0.988 1.15,1.406 0.414,0.414 0.858,0.771 1.333,1.051 l 0,0 c 0.828,0.494 1.758,0.752 2.655,0.805 l 0,0 c 0.967,0.062 1.91,-0.1 2.769,-0.344 l 0,0 c 0.999,-0.291 1.885,-0.691 2.663,-1.1 l 0,0 c 0.895,-0.469 1.645,-0.949 2.266,-1.373 l 0,0 c 0.695,-0.471 1.225,-0.871 1.602,-1.145 l 0,0 c 0.203,-0.148 0.359,-0.26 0.474,-0.328 l 0,0 c 0.06,-0.033 0.105,-0.062 0.14,-0.074 l 0,0 0,0 c 0.018,-0.008 0.035,-0.014 0.047,-0.014 0.006,0 0.01,0 0.016,0 0.002,0.003 0.005,0.006 0.008,0.01 l 0,0 0,0 z" /><path
     inkscape:connector-curvature="0"
     id="path3929"
     path-effect="#path-effect3931"
     connector-curvature="0"
     original-d="m 193.13435,922.06208 c 0,0 46.01764,43.83239 78.2968,-21.18795 0,0 15.97344,-45.71973 -24.47847,-61.08771 l 0,0 c 0,0 -28.43077,-16.04255 -48.75839,10.84569 0,0 -23.29861,30.65918 -5.05994,71.42997 z"
     d="m 31.425,45.537 c 0.066,-0.084 0.611,0.188 1.542,0.758 0.397,0.201 0.875,0.432 1.431,0.633 0.558,0.207 1.196,0.391 1.906,0.48 0.623,0.082 1.3,0.09 1.991,-0.033 0.686,-0.123 1.394,-0.379 2.062,-0.773 0.752,-0.445 1.457,-1.078 2.101,-1.832 0.778,-0.898 1.443,-1.982 2.038,-3.176 0.092,-0.389 0.185,-0.783 0.279,-1.178 0.164,-0.9 0.231,-1.834 0.144,-2.762 -0.103,-1.098 -0.41,-2.199 -1.025,-3.104 -0.166,-0.25 -0.354,-0.484 -0.562,-0.713 -0.216,-0.227 -0.451,-0.443 -0.701,-0.638 -0.6,-0.467 -1.295,-0.824 -2.021,-1.102 -0.282,-0.121 -0.56,-0.243 -0.838,-0.363 -0.608,-0.22 -1.236,-0.358 -1.854,-0.401 -0.849,-0.061 -1.687,0.049 -2.423,0.341 -1.027,0.384 -1.889,1.129 -2.562,1.954 -0.002,0.002 -0.002,0.002 -0.004,0.004 -0.002,0.002 -0.002,0.004 -0.006,0.006 -0.009,0.014 -0.02,0.027 -0.028,0.035 -0.037,0.053 -0.076,0.102 -0.113,0.158 -0.144,0.207 -0.277,0.42 -0.406,0.637 -0.467,0.799 -0.814,1.625 -1.069,2.426 -0.424,1.332 -0.576,2.607 -0.579,3.719 -0.038,0.736 -0.001,1.406 0.067,1.994 0.068,0.586 0.169,1.086 0.268,1.504 0.099,0.414 0.195,0.742 0.265,0.98 0.07,0.236 0.111,0.385 0.11,0.438 -0.013,0.008 -0.013,0.008 -0.013,0.008 0,0 0,0 -0.015,0.008 -0.042,-0.037 -0.13,-0.168 -0.252,-0.387 -0.125,-0.227 -0.286,-0.541 -0.466,-0.949 -0.178,-0.408 -0.375,-0.91 -0.558,-1.506 -0.182,-0.592 -0.349,-1.275 -0.457,-2.047 -0.106,-1.203 -0.042,-2.611 0.337,-4.111 0.229,-0.902 0.57,-1.84 1.057,-2.768 0.133,-0.248 0.277,-0.507 0.441,-0.76 0.042,-0.065 0.089,-0.137 0.137,-0.205 0.014,-0.018 0.026,-0.037 0.041,-0.057 0.003,-0.006 0.007,-0.011 0.011,-0.017 0,-0.002 0.002,-0.004 0.004,-0.004 0.755,-1.025 1.8,-1.975 3.161,-2.555 0.978,-0.402 2.07,-0.582 3.166,-0.515 0.806,0.051 1.612,0.216 2.388,0.49 0.281,0.118 0.566,0.238 0.852,0.359 0.853,0.311 1.694,0.744 2.456,1.331 0.324,0.251 0.629,0.529 0.911,0.832 0.271,0.292 0.518,0.598 0.736,0.933 0.794,1.213 1.184,2.58 1.278,3.906 0.081,1.129 -0.019,2.223 -0.232,3.254 -0.127,0.469 -0.255,0.928 -0.381,1.383 -0.687,1.326 -1.491,2.557 -2.428,3.592 -0.761,0.84 -1.633,1.535 -2.57,2.031 -0.841,0.443 -1.724,0.705 -2.574,0.799 -0.851,0.094 -1.65,0.021 -2.355,-0.137 -0.811,-0.182 -1.499,-0.457 -2.082,-0.752 -0.58,-0.295 -1.048,-0.605 -1.423,-0.887 -0.832,-0.737 -1.25,-1.175 -1.183,-1.261 l 0,0 z" /><path
     style="stroke:#000000;stroke-width:2"
     inkscape:connector-curvature="0"
     id="path3887-7"
     nodetypes="cccc"
     transform-center-x="-12.494187"
     connector-curvature="0"
     d="m 32.585,42.814 c 0,0 1.359,-4.564 3.821,-1.656 0,0 1.188,2.154 -0.423,3.65 0,10e-4 -3.142,1.413 -3.398,-1.994 z" /><path
     style="stroke:#000000;stroke-width:2"
     inkscape:connector-curvature="0"
     id="path3816-7"
     connector-curvature="0"
     d="m 25.607,41.258 c 0,0 -2.905,0.619 -1.515,3.461 1.388,2.84 3.915,1.855 3.915,1.855 0,0 2.146,-0.748 0.253,-4.08 0,0 -1.011,-1.607 -2.653,-1.236 z" /><path
     inkscape:connector-curvature="0"
     id="path3969"
     path-effect="#path-effect3971"
     connector-curvature="0"
     original-d="m 1307.1274,312.29741 c 283.5313,136.1591 0,0 0,0 z"
     d="m 228.409,-59.929 c 0.184,-0.371 7.787,2.816 17.78,7.416 l 0,0 c 1.22,0.56 2.474,1.142 3.754,1.74 l 0,0 c 0.285,0.134 0.571,0.268 0.859,0.403 l 0,0 c 0.07,0.033 0.137,0.065 0.206,0.097 l 0,0 0,0 c -0.109,0.265 -0.22,0.53 -0.329,0.796 l 0,0 c -0.016,0.042 -0.031,0.083 -0.045,0.125 -0.006,0.011 -0.009,0.021 -0.014,0.031 -0.001,0.004 -0.002,0.007 -0.004,0.012 -0.123,0.194 -0.246,0.392 -0.367,0.588 -0.064,-0.026 -0.127,-0.054 -0.19,-0.081 l 0,0 c -0.238,-0.112 -0.473,-0.223 -0.709,-0.334 -0.853,-0.401 -1.691,-0.8 -2.519,-1.193 -2.743,-1.308 -5.312,-2.555 -7.613,-3.693 -3.071,-1.52 -5.658,-2.843 -7.531,-3.853 -1.045,-0.564 -1.87,-1.031 -2.431,-1.378 -0.29,-0.18 -0.51,-0.328 -0.653,-0.441 -0.146,-0.116 -0.212,-0.196 -0.194,-0.235 l 0,0 0,0 c 0,0 0,0 0,0 l 0,0 0,0 0,0 c 0.021,-0.04 0.126,-0.039 0.31,0 0.18,0.039 0.435,0.113 0.762,0.223 0.625,0.211 1.513,0.548 2.617,0.994 1.977,0.8 4.652,1.947 7.784,3.342 2.344,1.043 4.946,2.226 7.706,3.502 0.83,0.384 1.674,0.777 2.529,1.177 0.235,0.109 0.472,0.22 0.708,0.332 l 0,0 c 0.061,0.031 0.122,0.063 0.183,0.094 -0.079,0.217 -0.158,0.432 -0.24,0.648 -0.002,0.003 -0.003,0.006 -0.003,0.011 -0.007,0.01 -0.015,0.019 -0.02,0.029 -0.024,0.037 -0.048,0.076 -0.072,0.114 l 0,0 c -0.143,0.25 -0.287,0.5 -0.43,0.749 l 0,0 0,0 c -0.069,-0.031 -0.138,-0.064 -0.205,-0.097 l 0,0 c -0.288,-0.135 -0.575,-0.27 -0.859,-0.405 l 0,0 c -1.277,-0.603 -2.526,-1.196 -3.733,-1.776 l 0,0 c -9.924,-4.755 -17.22,-8.566 -17.037,-8.937 l 0,0 z" /><path
     style="fill-opacity:0.90050001"
     inkscape:connector-curvature="0"
     id="path3977"
     path-effect="#path-effect3979"
     connector-curvature="0"
     original-d="m 205.03959,821.69265 c 0,0 25.62995,-24.02808 43.25054,-9.61123"
     d="m 33.531,28.177 c -0.01,-0.012 -0.019,-0.02 -0.026,-0.033 l 0,0 C 33.498,28.13 33.494,28.119 33.489,28.105 l 0,0 c -0.008,-0.028 -0.014,-0.058 -0.012,-0.093 l 0,0 0,0 c 0,-0.068 0.019,-0.148 0.055,-0.238 l 0,0 c 0.071,-0.183 0.212,-0.404 0.417,-0.649 l 0,0 c 0.386,-0.462 1.013,-1.012 1.863,-1.47 0.316,-0.168 0.667,-0.33 1.05,-0.456 0.59,-0.194 1.202,-0.29 1.77,-0.282 l 0,0 c 0.483,0.012 0.92,0.109 1.282,0.25 0.364,0.142 0.651,0.326 0.859,0.508 0.21,0.182 0.342,0.359 0.404,0.507 0.064,0.147 0.061,0.26 10e-4,0.332 -0.057,0.07 -0.167,0.095 -0.314,0.093 -0.147,-0.002 -0.328,-0.029 -0.544,-0.058 -0.213,-0.029 -0.461,-0.059 -0.732,-0.068 -0.273,-0.01 -0.572,0 -0.877,0.045 l 0,0 c -0.396,0.05 -0.822,0.159 -1.277,0.314 -0.296,0.1 -0.586,0.21 -0.869,0.322 -0.751,0.307 -1.411,0.632 -1.933,0.843 l 0,0 c -0.276,0.112 -0.51,0.19 -0.698,0.227 l 0,0 c -0.092,0.018 -0.176,0.021 -0.243,0.014 l 0,0 0,0 C 33.656,28.242 33.627,28.234 33.6,28.223 l 0,0 c -0.013,-0.004 -0.026,-0.011 -0.038,-0.019 l 0,0 C 33.551,28.196 33.54,28.185 33.531,28.177 l 0,0 z" /><path
     inkscape:connector-curvature="0"
     id="path3981"
     path-effect="#path-effect3983"
     connector-curvature="0"
     original-d="m 169.79841,794.46083 c 0,0 -6.40748,-43.25054 -54.46364,-1.60188"
     d="m 27.297,23.467 c -0.011,0 -0.025,0.002 -0.038,0 l 0,0 c -0.013,0 -0.027,-0.006 -0.04,-0.01 l 0,0 c -0.026,-0.009 -0.053,-0.025 -0.08,-0.046 l 0,0 0,0 c -0.056,-0.043 -0.116,-0.104 -0.181,-0.188 l 0,0 C 26.836,23.07 26.695,22.85 26.516,22.594 l 0,0 C 26.359,22.373 26.178,22.122 25.963,21.882 25.746,21.643 25.496,21.41 25.2,21.249 l 0,0 c -0.264,-0.155 -0.578,-0.268 -0.908,-0.309 -0.339,-0.055 -0.724,-0.023 -1.137,0.054 -0.064,0.012 -0.127,0.025 -0.189,0.041 l 0,0 c -0.71,0.153 -1.362,0.419 -1.959,0.703 -0.596,0.286 -1.137,0.586 -1.605,0.841 -0.468,0.252 -0.861,0.455 -1.159,0.565 -0.297,0.113 -0.498,0.134 -0.574,0.045 -0.079,-0.086 -0.029,-0.277 0.137,-0.55 0.164,-0.272 0.445,-0.627 0.843,-1.023 0.398,-0.396 0.917,-0.835 1.565,-1.244 0.646,-0.406 1.425,-0.781 2.331,-1.016 l 0,0 c 0.086,-0.023 0.175,-0.042 0.264,-0.06 0.586,-0.117 1.203,-0.126 1.793,-0.007 0.594,0.12 1.119,0.382 1.533,0.718 l 0,0 c 0.438,0.363 0.738,0.771 0.944,1.157 0.208,0.384 0.319,0.753 0.38,1.064 l 0,0 c 0.072,0.357 0.078,0.654 0.047,0.865 l 0,0 c -0.017,0.111 -0.044,0.2 -0.078,0.264 l 0,0 0,0 c -0.019,0.033 -0.037,0.059 -0.059,0.076 l 0,0 c -0.01,0.008 -0.022,0.016 -0.035,0.023 l 0,0 c -0.011,0.003 -0.023,0.005 -0.037,0.011 l 0,0 z" /></g><g
   inkscape:groupmode="layer"
   id="layer2"
   inkscape:label="fond" /><g
   inkscape:groupmode="layer"
   id="layer3"
   inkscape:label="blanc" /></svg>