<?xml version="1.0" encoding="utf-8"?>
<!-- Generator: Adobe Illustrator 16.0.0, SVG Export Plug-In . SVG Version: 6.00 Build 0)  -->
<!DOCTYPE svg PUBLIC "-//W3C//DTD SVG 1.1//EN" "http://www.w3.org/Graphics/SVG/1.1/DTD/svg11.dtd">
<svg version="1.1" xmlns="http://www.w3.org/2000/svg" xmlns:xlink="http://www.w3.org/1999/xlink" x="0px" y="0px" width="64px"
	 height="128px" viewBox="0 0 64 128" enable-background="new 0 0 64 128" xml:space="preserve">
<g id="Calque_1">
	<ellipse fill="none" stroke="#000000" stroke-width="0.902" stroke-miterlimit="10" cx="32" cy="96" rx="17.514" ry="25.781"/>
	
		<line fill="none" stroke="#000000" stroke-width="0.451" stroke-miterlimit="10" x1="32.074" y1="71.006" x2="32.226" y2="99.758"/>
	<path fill="#960000" d="M31.322,71.27l0.051,22.324l-15.76-0.15c0,0,0.825-10.406,6.013-16.385
		C26.397,71.596,29.873,71.354,31.322,71.27z"/>
	<path fill="#FFFFFF" d="M34.686,84.736c0,1.381-1.118,2.498-2.498,2.498l0,0c-1.38,0-2.498-1.117-2.498-2.498v-7.164
		c0-1.381,1.118-2.498,2.498-2.498l0,0c1.38,0,2.498,1.117,2.498,2.498V84.736z"/>
	<path fill="none" d="M36.273-17.3"/>
	<path d="M34.18,84.012c0,1.1-0.893,1.99-1.992,1.99l0,0c-1.101,0-1.992-0.891-1.992-1.99v-5.713c0-1.1,0.892-1.992,1.992-1.992l0,0
		c1.1,0,1.992,0.893,1.992,1.992V84.012z"/>
	<ellipse fill="none" stroke="#000000" stroke-width="0.902" stroke-miterlimit="10" cx="32" cy="32" rx="17.514" ry="25.781"/>
	<line fill="none" stroke="#000000" stroke-width="0.451" stroke-miterlimit="10" x1="32.074" y1="7.005" x2="32.225" y2="35.757"/>
	<path fill="#FFFFFF" d="M34.686,20.736c0,1.381-1.119,2.498-2.498,2.498l0,0c-1.381,0-2.498-1.117-2.498-2.498v-7.164
		c0-1.381,1.117-2.498,2.498-2.498l0,0c1.379,0,2.498,1.117,2.498,2.498V20.736z"/>
	<path d="M34.18,20.011c0,1.1-0.893,1.99-1.992,1.99l0,0c-1.101,0-1.992-0.891-1.992-1.99v-5.713c0-1.1,0.892-1.992,1.992-1.992l0,0
		c1.1,0,1.992,0.893,1.992,1.992V20.011z"/>
</g>
<g id="Calque_2">
</g>
</svg>
