<?xml version="1.0" encoding="UTF-8" standalone="no"?>
<!-- Created with Inkscape (http://www.inkscape.org/) -->

<svg
   xmlns:dc="http://purl.org/dc/elements/1.1/"
   xmlns:cc="http://creativecommons.org/ns#"
   xmlns:rdf="http://www.w3.org/1999/02/22-rdf-syntax-ns#"
   xmlns:svg="http://www.w3.org/2000/svg"
   xmlns="http://www.w3.org/2000/svg"
   xmlns:sodipodi="http://sodipodi.sourceforge.net/DTD/sodipodi-0.dtd"
   xmlns:inkscape="http://www.inkscape.org/namespaces/inkscape"
   width="128"
   height="128"
   id="svg2997"
   version="1.1"
   inkscape:version="0.48.4 r9939"
   sodipodi:docname="Nouveau document 1">
  <defs
     id="defs2999" />
  <sodipodi:namedview
     id="base"
     pagecolor="#ffffff"
     bordercolor="#666666"
     borderopacity="1.0"
     inkscape:pageopacity="0.0"
     inkscape:pageshadow="2"
     inkscape:zoom="4"
     inkscape:cx="32.17528"
     inkscape:cy="71.251834"
     inkscape:document-units="px"
     inkscape:current-layer="layer1"
     showgrid="false"
     inkscape:window-width="1600"
     inkscape:window-height="838"
     inkscape:window-x="-8"
     inkscape:window-y="-8"
     inkscape:window-maximized="1" />
  <metadata
     id="metadata3002">
    <rdf:RDF>
      <cc:Work
         rdf:about="">
        <dc:format>image/svg+xml</dc:format>
        <dc:type
           rdf:resource="http://purl.org/dc/dcmitype/StillImage" />
        <dc:title></dc:title>
      </cc:Work>
    </rdf:RDF>
  </metadata>
  <g
     inkscape:label="Calque 1"
     inkscape:groupmode="layer"
     id="layer1"
     transform="translate(0,-924.36218)">
    <g
       id="layer1-1"
       groupmode="layer"
       label="Calque 1"
       transform="matrix(2.8302551,0,0,2.715533,-1.3569443,943.25496)">
      <path
         id="path4309"
         connector-curvature="0"
         original-d="m 255.63153,535.04022 c 0,0 68.41135,20.65249 104.55319,-1.29078 0,0 65.82979,-20.65248 95.51773,11.61703"
         path-effect="#path-effect4311"
         stroke-miterlimit="10"
         d="m 1.814,12.216 c 0.066,-0.333 3.363,0.002 8.425,0.792 1.057,0.076 2.191,0.133 3.382,0.134 1.191,0.003 2.439,-0.049 3.722,-0.2 1.982,-0.251 4.064,-0.691 5.896,-1.664 0.182,-0.098 0.359,-0.198 0.534,-0.305 0.003,-0.002 0.007,-0.003 0.011,-0.004 0.01,-0.005 0.021,-0.008 0.032,-0.013 0.042,-0.017 0.083,-0.033 0.124,-0.051 l 0,0 0,0 c 0.043,-0.013 0.088,-0.026 0.13,-0.038 l 0,0 c 0.162,-0.046 0.323,-0.091 0.481,-0.133 0.585,-0.156 1.165,-0.292 1.739,-0.411 1.967,-0.411 3.894,-0.645 5.711,-0.71 1.305,-0.049 2.56,-0.009 3.733,0.123 1.175,0.132 2.264,0.354 3.241,0.644 l 0,0 c 1.303,0.387 2.404,0.91 3.259,1.456 0.965,0.616 1.611,1.254 1.996,1.729 0.382,0.475 0.514,0.784 0.435,0.855 -0.077,0.071 -0.356,-0.1 -0.842,-0.408 -0.487,-0.309 -1.189,-0.756 -2.134,-1.176 -0.842,-0.373 -1.878,-0.72 -3.09,-0.963 l 0,0 c -0.913,-0.185 -1.921,-0.311 -3.008,-0.36 -1.087,-0.049 -2.256,-0.026 -3.479,0.066 -1.706,0.131 -3.514,0.4 -5.375,0.813 -0.543,0.121 -1.087,0.253 -1.63,0.401 -0.147,0.04 -0.293,0.081 -0.437,0.123 l 0,0 c -0.037,0.011 -0.074,0.022 -0.109,0.033 l 0,0 0,0 c 0.021,-0.011 0.041,-0.022 0.062,-0.032 0.006,-0.003 0.011,-0.006 0.017,-0.008 0.002,-0.001 0.004,-0.002 0.006,-0.003 -0.204,0.123 -0.412,0.24 -0.622,0.351 -1.062,0.558 -2.161,0.949 -3.255,1.219 -1.093,0.272 -2.179,0.423 -3.22,0.501 -1.406,0.116 -2.753,0.118 -4.02,0.051 C 12.261,14.961 11.076,14.826 9.986,14.663 4.939,13.479 1.749,12.549 1.814,12.216 l 0,0 z"
         inkscape:connector-curvature="0"
         style="fill:#923c3c;stroke:#923c3c;stroke-miterlimit:10" />
      <path
         id="path4313"
         connector-curvature="0"
         d="m 28.354,10.314 c 0,0 6.081,-1.653 6.356,-3.859 0,0 1.107,-3.031 3.871,-2.756"
         inkscape:connector-curvature="0"
         style="fill:none;stroke:#923c3c" />
      <path
         id="path4315"
         connector-curvature="0"
         d="m 22.547,13.87 c 0,0 3.594,4.961 5.807,4.41 0,0 8.845,0 7.739,3.031"
         inkscape:connector-curvature="0"
         style="fill:none;stroke:#923c3c" />
      <path
         id="path4317"
         connector-curvature="0"
         d="m 11.214,14.545 c 0,0 0,4.686 3.041,5.512 0,0 6.635,1.103 6.912,4.961"
         inkscape:connector-curvature="0"
         style="fill:none;stroke:#923c3c" />
      <path
         id="path4319"
         connector-curvature="0"
         d="m 34.436,7.531 c 0,0 2.211,1.378 3.594,0.552 0,0 0.83,-1.654 2.765,-1.103"
         inkscape:connector-curvature="0"
         style="fill:none;stroke:#923c3c" />
      <path
         id="path4321"
         connector-curvature="0"
         d="M 34.436,6.055 C 34.986749,8.159726 31.757286,1.7035706 34.159,1.37"
         inkscape:connector-curvature="0"
         style="fill:none;stroke:#923c3c"
         sodipodi:nodetypes="cc" />
      <path
         id="path4323"
         connector-curvature="0"
         d="m 25.313,16.626 c 0,0 2.209,-4.41 3.869,-2.756"
         inkscape:connector-curvature="0"
         style="fill:none;stroke:#923c3c" />
      <path
         id="path4325"
         connector-curvature="0"
         d="m 32.588331,18.708189 c 0,0 4.335669,-1.930189 5.440669,-0.276189 0,0 -0.275,2.756 1.658,3.031"
         inkscape:connector-curvature="0"
         style="fill:none;stroke:#923c3c"
         sodipodi:nodetypes="ccc" />
      <path
         id="path4327"
         connector-curvature="0"
         d="m 28.905,18.28 c 0,0 -1.658,4.409 0.828,4.685"
         inkscape:connector-curvature="0"
         style="fill:none;stroke:#923c3c" />
      <path
         id="path4329"
         connector-curvature="0"
         d="m 12.32,18.556 c 0,0 3.594,-3.308 5.528,-1.103"
         inkscape:connector-curvature="0"
         style="fill:none;stroke:#923c3c" />
      <path
         id="path4331"
         connector-curvature="0"
         d="m 15.36,20.182 c 0,0 -0.67535,3.21337 0.553,4.593937 0,0 2.764,5.606063 -2.764,6.155063"
         inkscape:connector-curvature="0"
         style="fill:none;stroke:#923c3c"
         sodipodi:nodetypes="ccc" />
      <path
         id="path4333"
         connector-curvature="0"
         d="m 15.084,24.165 c 1.933464,-0.795667 -0.77119,4.138711 -3.042,3.308"
         inkscape:connector-curvature="0"
         style="fill:none;stroke:#923c3c"
         sodipodi:nodetypes="cc" />
    </g>
  </g>
</svg>
