<?xml version="1.0" encoding="UTF-8" standalone="no"?>
<!-- Created with Inkscape (http://www.inkscape.org/) -->

<svg
   xmlns:dc="http://purl.org/dc/elements/1.1/"
   xmlns:cc="http://creativecommons.org/ns#"
   xmlns:rdf="http://www.w3.org/1999/02/22-rdf-syntax-ns#"
   xmlns:svg="http://www.w3.org/2000/svg"
   xmlns="http://www.w3.org/2000/svg"
   xmlns:sodipodi="http://sodipodi.sourceforge.net/DTD/sodipodi-0.dtd"
   xmlns:inkscape="http://www.inkscape.org/namespaces/inkscape"
   width="210mm"
   height="297mm"
   id="svg4395"
   version="1.1"
   inkscape:version="0.48.4 r9939"
   sodipodi:docname="Nouveau document 6">
  <defs
     id="defs3">
    <inkscape:path-effect
       effect="skeletal"
       id="path-effect4354"
       is_visible="true"
       pattern="m -149.88649,84.023787 c 0,-2.76 2.24,-5 5,-5 2.76,0 5,2.24 5,5 0,2.76 -2.24,5 -5,5 -2.76,0 -5,-2.24 -5,-5 z"
       copytype="single_stretched"
       prop_scale="1"
       scale_y_rel="false"
       spacing="0"
       normal_offset="0"
       tang_offset="0"
       prop_units="false"
       vertical_pattern="false"
       fuse_tolerance="0" />
  </defs>
  <sodipodi:namedview
     inkscape:document-units="mm"
     id="base"
     pagecolor="#ffffff"
     bordercolor="#666666"
     borderopacity="1.0"
     inkscape:pageopacity="0.0"
     inkscape:pageshadow="2"
     inkscape:zoom="0.35"
     inkscape:cx="350"
     inkscape:cy="520"
     inkscape:current-layer="layer1"
     showgrid="false"
     inkscape:window-width="1600"
     inkscape:window-height="838"
     inkscape:window-x="-8"
     inkscape:window-y="-8"
     inkscape:window-maximized="1" />
  <metadata
     id="metadata4">
    <rdf:RDF>
      <cc:Work
         rdf:about="">
        <dc:format>image/svg+xml</dc:format>
        <dc:type
           rdf:resource="http://purl.org/dc/dcmitype/StillImage" />
        <dc:title></dc:title>
      </cc:Work>
    </rdf:RDF>
  </metadata>
  <g
     inkscape:label="Layer 1"
     inkscape:groupmode="layer"
     id="layer1">
    <path
       style="color:#000000;fill:#000000;fill-rule:evenodd;stroke:none;stroke-width:1px;marker:none;visibility:visible;display:inline;overflow:visible;enable-background:accumulate"
       d="m 108.26955,202.76848 c 0.63391,-0.53763 3.83345,2.02292 8.9248,6.96127 2.42354,2.09022 5.34296,4.53919 8.79486,7.13046 3.4519,2.59127 7.43764,5.32487 11.98162,7.93215 4.17603,2.39831 8.83731,4.69021 13.92971,6.59288 5.09241,1.90267 10.61561,3.41511 16.45917,4.20291 7.80595,1.18053 16.23493,0.93819 24.7292,-0.80066 4.64209,-0.95027 9.13195,-2.30613 13.38494,-3.96364 2.44634,-1.98489 4.85972,-3.93098 7.23592,-5.83471 6.63229,-4.78451 13.45532,-8.73839 20.1749,-11.68329 4.54927,-2.01673 9.15,-3.55592 13.58992,-4.5014 4.43991,-0.94548 8.71832,-1.2991 12.6705,-1.11991 0,0 0,0 1e-5,0 5.18865,0.25196 9.70466,1.55163 13.22611,3.24505 2.13836,1.03741 3.89152,2.19969 5.31087,3.32089 1.41934,1.1212 2.50602,2.20218 3.31412,3.13751 1.61619,1.87066 2.1474,3.12344 1.81944,3.4514 -0.32796,0.32796 -1.49831,-0.27862 -3.51506,-1.37575 -1.00838,-0.54857 -2.23466,-1.2132 -3.69365,-1.88865 -1.459,-0.67546 -3.15179,-1.36261 -5.08045,-1.90933 -3.17328,-0.91422 -7.04816,-1.44482 -11.38253,-1.19447 0,0 0,0 0,0 -3.34654,0.17796 -6.94052,0.82611 -10.72179,1.97569 -3.78126,1.14958 -7.75063,2.80206 -11.8146,4.8155 -5.92212,2.97019 -11.96714,6.81568 -17.985,11.38376 -2.67187,2.16594 -5.407,4.37049 -8.19562,6.60594 -4.87103,2.03093 -10.06268,3.68978 -15.46918,4.85089 -9.89302,2.12464 -19.83716,2.41231 -29.04928,0.99613 -6.64721,-1.11812 -12.79828,-3.06493 -18.34352,-5.46246 -5.54523,-2.39754 -10.4852,-5.2441 -14.79054,-8.21291 -4.70135,-3.24329 -8.6813,-6.60499 -11.994,-9.79311 -3.31269,-3.18812 -5.96009,-6.20251 -8.01512,-8.82026 -4.1206,-5.92337 -6.12967,-9.50425 -5.49575,-10.04188 z"
       id="path4352"
       inkscape:path-effect="#path-effect4354"
       inkscape:original-d="m 108.26954,202.76847 c 0,0 40.01418,56.79433 100.68085,32.2695 0,0 46.46809,-42.59574 74.86525,-14.19858"
       inkscape:connector-curvature="0" />
    <path
       style="color:#000000;fill:none;stroke:#000000;stroke-width:3.70000005;stroke-linecap:butt;stroke-linejoin:miter;stroke-miterlimit:4;stroke-opacity:1;stroke-dasharray:none;stroke-dashoffset:0;marker:none;visibility:visible;display:inline;overflow:visible;enable-background:accumulate"
       d="m 208.95039,238.91031 c 0,0 21.94326,16.78014 32.26951,14.19858 0,0 24.52482,-12.9078 36.14184,-1.29078"
       id="path4356"
       inkscape:connector-curvature="0" />
    <path
       style="color:#000000;fill:none;stroke:#000000;stroke-width:3.70000005;stroke-linecap:butt;stroke-linejoin:miter;stroke-miterlimit:4;stroke-opacity:1;stroke-dasharray:none;stroke-dashoffset:0;marker:none;visibility:visible;display:inline;overflow:visible;enable-background:accumulate"
       d="m 162.48231,237.03797 c 0,0 23.23404,-2.58156 25.8156,-7.74468 0,0 11.61702,-20.65248 20.65248,-18.07092"
       id="path4358"
       inkscape:connector-curvature="0" />
    <path
       style="color:#000000;fill:none;stroke:#000000;stroke-width:3.70000005;stroke-linecap:butt;stroke-linejoin:miter;stroke-miterlimit:4;stroke-opacity:1;stroke-dasharray:none;stroke-dashoffset:0;marker:none;visibility:visible;display:inline;overflow:visible;enable-background:accumulate"
       d="m 241.2199,211.93159 c 0,0 7.74468,-18.07092 14.19858,-18.07092 0,0 27.10638,1.29078 25.8156,-6.4539"
       id="path4360"
       inkscape:connector-curvature="0" />
    <path
       style="color:#000000;fill:none;stroke:#000000;stroke-width:2.29999995;stroke-linecap:butt;stroke-linejoin:miter;stroke-miterlimit:4;stroke-opacity:1;stroke-dasharray:none;stroke-dashoffset:0;marker:none;visibility:visible;display:inline;overflow:visible;enable-background:accumulate"
       d="m 250.25536,195.02379 c 0,0 7.74468,-18.07092 15.48936,-15.48936 0,0 18.07092,2.58156 20.65248,-7.74469"
       id="path4362"
       inkscape:connector-curvature="0" />
    <path
       style="color:#000000;fill:none;stroke:#000000;stroke-width:2.29999995;stroke-linecap:butt;stroke-linejoin:miter;stroke-miterlimit:4;stroke-opacity:1;stroke-dasharray:none;stroke-dashoffset:0;marker:none;visibility:visible;display:inline;overflow:visible;enable-background:accumulate"
       d="m 270.07096,193.02379 c 0,0 10.32624,19.3617 20.65248,12.9078"
       id="path4364"
       inkscape:connector-curvature="0" />
    <path
       style="color:#000000;fill:none;stroke:#000000;stroke-width:2.29999995;stroke-linecap:butt;stroke-linejoin:miter;stroke-miterlimit:4;stroke-opacity:1;stroke-dasharray:none;stroke-dashoffset:0;marker:none;visibility:visible;display:inline;overflow:visible;enable-background:accumulate"
       d="m 245.09224,252.39967 c 0,0 0,19.3617 10.32624,23.23404"
       id="path4366"
       inkscape:connector-curvature="0" />
    <path
       style="color:#000000;fill:none;stroke:#000000;stroke-width:2.29999995;stroke-linecap:butt;stroke-linejoin:miter;stroke-miterlimit:4;stroke-opacity:1;stroke-dasharray:none;stroke-dashoffset:0;marker:none;visibility:visible;display:inline;overflow:visible;enable-background:accumulate"
       d="m 259.29082,245.36421 c 0,0 19.3617,-12.9078 25.8156,-3.87234"
       id="path4368"
       inkscape:connector-curvature="0" />
    <path
       style="color:#000000;fill:none;stroke:#000000;stroke-width:2.29999995;stroke-linecap:butt;stroke-linejoin:miter;stroke-miterlimit:4;stroke-opacity:1;stroke-dasharray:none;stroke-dashoffset:0;marker:none;visibility:visible;display:inline;overflow:visible;enable-background:accumulate"
       d="m 245.09224,263.43514 c 0,0 -20.65249,14.19857 -12.90781,18.07091"
       id="path4370"
       inkscape:connector-curvature="0" />
    <path
       style="color:#000000;fill:none;stroke:#000000;stroke-width:2.29999995;stroke-linecap:butt;stroke-linejoin:miter;stroke-miterlimit:4;stroke-opacity:1;stroke-dasharray:none;stroke-dashoffset:0;marker:none;visibility:visible;display:inline;overflow:visible;enable-background:accumulate"
       d="m 192.17025,221.54861 c 0,0 -14.19858,-21.94326 1.29078,-23.23404"
       id="path4372"
       inkscape:connector-curvature="0" />
  </g>
</svg>
