<?xml version="1.0" encoding="utf-8"?>
<!-- Generator: Adobe Illustrator 16.0.0, SVG Export Plug-In . SVG Version: 6.00 Build 0)  -->
<!DOCTYPE svg PUBLIC "-//W3C//DTD SVG 1.1//EN" "http://www.w3.org/Graphics/SVG/1.1/DTD/svg11.dtd">
<svg version="1.1" xmlns="http://www.w3.org/2000/svg" xmlns:xlink="http://www.w3.org/1999/xlink" x="0px" y="0px"
	 width="120.973px" height="44.667px" viewBox="0 0 120.973 44.667" enable-background="new 0 0 120.973 44.667"
	 xml:space="preserve">
<g id="Calque_1">
</g>
<g id="Calque_3">
</g>
<g id="yeux">
</g>
<g id="Calque_4">
	
		<path fill="#FCFCFC" stroke="#1D1D1B" stroke-width="1.0264" stroke-linecap="round" stroke-linejoin="round" stroke-miterlimit="10" d="
		M57.092,29.085c-0.084,0.76,0.443,2.502,0.443,2.502s-1.923-0.543-1.683,1.334c0.24,1.881,2.539,0.592,2.659,0.768
		c0.124,0.18,0.9,1.256,0.9,1.256s-3.281,1.645-0.951,2.99c2.328,1.344,2.419-1.779,2.419-1.779
		c1.471,1.385,3.106,1.881,3.106,1.881s-1.402,3.301,1.343,3.268c2.742-0.037,1.317-2.766,1.605-2.986
		c0.287-0.223,4.341-0.393,4.382-0.438c-0.497,1.785-0.254,2.857,1.426,2.684c1.677-0.172,0.864-2.543,0.907-2.498
		c1.517-0.574,5.937-0.162,6.021-0.115c-0.867,2.049-0.257,3.168,1.341,3.172c1.597,0.006,1.194-2.896,1.194-2.896
		c1.146,0.002,4.298,0.861,4.175,0.949c-0.122,0.09-1.524,2.855,0.809,3.217c2.333,0.363,1.605-2.676,1.646-2.676
		c1.227,0.629,3.068,0.459,3.028,0.459c-1.237,2.945,1.383,2.904,1.384,2.863c1.884-0.486,0.868-2.814,0.868-2.771
		c0,0.047,2.618,0.008,2.618,0.008s-0.783,2.324,1.098,2.598c1.884,0.273,1.521-2.408,1.44-2.41c-0.082,0,3.317-0.393,3.317-0.393
		s-0.171,3.172,1.918,2.51c2.089-0.668,0.501-3.307,0.501-3.307c1.8-0.039,4.182-1.996,4.266-1.996c0.079,0,1.179,2.324,2.409,1.301
		c1.231-1.025-0.442-2.816-0.485-2.816c1.151-0.799,3.002-3.436,3.002-3.436s1.588,2.465,2.822,0.637
		c1.233-1.824-1.794-2.461-1.794-2.551c1.113-2.408,0.831-4.285,0.831-4.285s2.778,1.838,2.909-0.75
		c0.132-2.591-2.66-0.947-2.698-0.99c0.126-1.742-0.934-3.623-0.975-3.576c-0.039,0.043,3.199-1.064,1.852-2.676
		c-1.346-1.611-2.869,1.064-2.828,1.02c-0.854-2.191-4.983-4.035-4.983-4.035s1.807-1.959-0.2-2.368
		c-2.003-0.407-1.641,2.051-1.641,2.051s-1.493-0.296-3.03-0.231c0-0.068,0.989-2.745-1.099-2.484c0,0-2.457,0.328-1.356,2.61
		c0,0.067-1.722,0.062-2.335,0.396c0,0.068-0.056-3.016-1.837-2.484c-1.779,0.529-1.54,2.072-0.5,2.945
		c0.062,0.135-2.091,1.067-2.091,1.067s0.009-2.948-1.527-2.618c-1.538,0.33-1.542,1.604-0.5,3.148
		c0.059,0.133-3.872,0.658-3.808,0.658c0.061,0,0.863-2.676-0.978-2.816c-1.841-0.139-1.908,1.938-0.991,2.945
		c-0.123-0.001-3.561,0.124-3.561,0.057s1.235-2.274-0.485-2.748c-1.717-0.475-2.091,1.399-1.481,2.941
		c0.122,0.07-2.888,0.195-3.867-0.545c-0.125-0.001,1.848-2.475-0.054-2.882c-1.902-0.407-1.663,1.604-1.85,2.407
		c0,0.067-4.54-1.22-6.016-0.82c-0.062,0.066,1.235-2.812-0.789-2.884c-2.028-0.074-2.034,1.803-1.237,3.01
		c0,0.068-4.917,0.522-6.271,1.591c0,0-0.236-2.883-2.143-1.748c-1.909,1.135,0.542,2.814,0.541,3.018
		c0,0.201-1.903,1.199-2.34,3.207c0,0-8.703-6.59-17.058-5.877c0,0-7.003,0.783-11.847-1.777c0,0.068-8.893-4.582-11.394-9.881
		c0,0,3.103,9.857,11.203,12.092c0.059,0.135,7.488,1.898,12.276,1.577c4.791-0.321,13.929,4.729,15.398,6.007
		c0,0.066-13.256-3.121-20.631-1.533c-0.001,0.066-8.912,2.252-15.284-2.523c0-0.066-6.681-4.508-13.751-2.049
		c0.061,0.066,7.203,1.003,13.498,4.686c0,0,8.582,5.092,15.962,2.301c0,0,6.882-1.855,20.385,1.064c0,0-5.785,4.738-13.283,5.924
		c-0.001,0.068-6.268,0.852-13.749-2.785c-0.001,0.199-8.523-4.248-15.897-3.264c0.062,0,10.989,2.576,15.646,5.807
		c0,0,8.335,5.787,16.146,2.525C45.511,34.9,57.092,29.085,57.092,29.085z"/>
	<polyline fill="none" stroke="#1D1D1B" stroke-linecap="round" stroke-linejoin="round" stroke-miterlimit="10" points="
		113.41,23.667 110.243,27.333 114.077,28.333 	"/>
	<polyline fill="none" stroke="#1D1D1B" stroke-linecap="round" stroke-linejoin="round" stroke-miterlimit="10" points="
		102.077,24.335 108.243,27.167 102.577,30.835 	"/>
</g>
</svg>
