<?xml version="1.0" encoding="utf-8"?>
<!-- Generator: Adobe Illustrator 16.0.0, SVG Export Plug-In . SVG Version: 6.00 Build 0)  -->
<!DOCTYPE svg PUBLIC "-//W3C//DTD SVG 1.1//EN" "http://www.w3.org/Graphics/SVG/1.1/DTD/svg11.dtd">
<svg version="1.1" xmlns="http://www.w3.org/2000/svg" xmlns:xlink="http://www.w3.org/1999/xlink" x="0px" y="0px"
	 width="120.973px" height="44.667px" viewBox="0 0 120.973 44.667" enable-background="new 0 0 120.973 44.667"
	 xml:space="preserve">
<g id="Calque_1">
	
		<path fill="#FCFCFC" stroke="#1D1D1B" stroke-width="1.0263" stroke-linecap="round" stroke-linejoin="round" stroke-miterlimit="10" d="
		M57.176,29.121c-0.084,0.76,0.443,2.501,0.443,2.501s-1.923-0.542-1.683,1.334c0.24,1.882,2.539,0.593,2.659,0.768
		c0.124,0.181,0.9,1.256,0.9,1.256s-3.281,1.646-0.951,2.99c2.328,1.345,2.419-1.779,2.419-1.779
		c1.471,1.386,3.106,1.882,3.106,1.882s-1.402,3.301,1.343,3.267c2.742-0.036,1.317-2.766,1.605-2.986
		c0.287-0.223,4.341-0.393,4.382-0.437c-0.497,1.785-0.254,2.857,1.426,2.683c1.677-0.172,0.864-2.542,0.907-2.497
		c1.517-0.574,5.937-0.162,6.021-0.116c-0.867,2.05-0.257,3.168,1.341,3.173c1.597,0.006,1.194-2.897,1.194-2.897
		c1.146,0.002,4.298,0.861,4.175,0.949c-0.122,0.091-1.524,2.855,0.809,3.218c2.333,0.363,1.605-2.676,1.646-2.676
		c1.227,0.629,3.068,0.458,3.028,0.458c-1.237,2.945,1.383,2.905,1.384,2.863c1.884-0.486,0.868-2.814,0.868-2.771
		c0,0.047,2.618,0.008,2.618,0.008s-0.783,2.324,1.098,2.598c1.884,0.272,1.521-2.408,1.44-2.41c-0.082,0,3.317-0.394,3.317-0.394
		s-0.171,3.172,1.918,2.51c2.089-0.667,0.501-3.306,0.501-3.306c1.8-0.039,4.182-1.996,4.266-1.996c0.079,0,1.179,2.324,2.409,1.3
		c1.231-1.025-0.442-2.815-0.485-2.815c1.151-0.8,3.002-3.436,3.002-3.436s1.588,2.465,2.822,0.636
		c1.233-1.824-1.794-2.46-1.794-2.551c1.113-2.408,0.831-4.284,0.831-4.284s2.778,1.837,2.909-0.751
		c0.132-2.591-2.66-0.947-2.698-0.989c0.126-1.743-0.934-3.624-0.975-3.577c-0.039,0.043,3.199-1.064,1.852-2.675
		c-1.346-1.611-2.869,1.064-2.828,1.019c-0.854-2.191-4.983-4.036-4.983-4.036s1.807-1.959-0.2-2.368
		c-2.003-0.407-1.641,2.051-1.641,2.051s-1.493-0.295-3.03-0.232c0-0.068,0.989-2.745-1.099-2.483c0,0-2.457,0.328-1.356,2.61
		c0,0.067-1.722,0.062-2.335,0.395c0,0.068-0.056-3.016-1.837-2.484c-1.779,0.53-1.54,2.073-0.5,2.946
		c0.062,0.135-2.091,1.067-2.091,1.067s0.009-2.948-1.527-2.618c-1.538,0.331-1.542,1.604-0.5,3.148
		c0.059,0.134-3.872,0.659-3.808,0.659c0.061,0,0.863-2.677-0.978-2.816c-1.841-0.139-1.908,1.937-0.991,2.944
		c-0.123,0-3.561,0.125-3.561,0.057c0-0.067,1.235-2.274-0.485-2.748c-1.717-0.474-2.091,1.4-1.481,2.942
		c0.122,0.07-2.888,0.194-3.867-0.546c-0.125,0,1.848-2.475-0.054-2.881c-1.902-0.407-1.663,1.604-1.85,2.408
		c0,0.067-4.54-1.22-6.016-0.821c-0.062,0.067,1.235-2.812-0.789-2.883c-2.028-0.074-2.034,1.803-1.237,3.01
		c0,0.068-4.917,0.523-6.271,1.59c0,0-0.236-2.882-2.143-1.747c-1.909,1.134,0.542,2.814,0.541,3.017
		c0,0.201-1.903,1.199-2.34,3.208c0,0-8.703-6.59-17.058-5.878c0,0-7.003,0.784-11.847-1.777c0,0.068-8.893-4.582-11.394-9.881
		c0,0,3.103,9.858,11.203,12.093c0.059,0.134,7.488,1.898,12.276,1.577c4.791-0.322,13.929,4.729,15.398,6.008
		c0,0.066-13.256-3.122-20.631-1.534c-0.001,0.066-8.912,2.252-15.284-2.524c0-0.065-6.681-4.507-13.751-2.048
		c0.061,0.066,7.203,1.003,13.498,4.686c0,0,8.582,5.093,15.962,2.3c0,0,6.882-1.855,20.385,1.064c0,0-5.785,4.738-13.283,5.924
		c-0.001,0.068-6.268,0.852-13.749-2.784C29.7,30,21.178,25.553,13.804,26.537c0.062,0,10.989,2.576,15.646,5.806
		c0,0,8.335,5.787,16.146,2.525C45.595,34.935,57.176,29.121,57.176,29.121z"/>
</g>
<g id="yeux">
	
		<path fill="#1D1D1B" stroke="#1D1D1B" stroke-width="0.7698" stroke-linecap="round" stroke-linejoin="round" stroke-miterlimit="10" d="
		M108.471,21.476c0,0,2.715-3.344,2.834-3.21c0.125,0.137,1.228,1.032,1.228,1.032L108.471,21.476z"/>
	
		<polygon fill="#1D1D1B" stroke="#1D1D1B" stroke-width="0.7698" stroke-linecap="round" stroke-linejoin="round" stroke-miterlimit="10" points="
		103.709,18.891 106.732,21.58 102.803,20.587 	"/>
	<g>
		<path fill="#1D1D1B" d="M99.252,20.388c0.153,0.397,0.376,0.783,0.623,1.137c0.261,0.346,0.542,0.675,0.872,0.946
			c0.32,0.278,0.675,0.517,1.056,0.69c0.191,0.085,0.372,0.189,0.579,0.237c0.203,0.054,0.394,0.137,0.602,0.167l0.619,0.095
			c0.207,0.021,0.421,0.009,0.63,0.016c0.416,0.035,0.844-0.075,1.26-0.106c0.418-0.084,0.834-0.194,1.246-0.297l1.218-0.437
			c0.245-0.088,0.506-0.042,0.702,0.1l0.041,0.03l0,0l0.128,0.176l-0.1-0.068c0.192,0.156,0.384,0.35,0.604,0.476
			c0.222,0.115,0.444,0.274,0.692,0.331c0.122,0.034,0.244,0.097,0.372,0.107l0.385,0.054c0.129,0.017,0.259-0.004,0.39-0.005
			c0.132,0.002,0.26-0.024,0.39-0.048c0.518-0.088,1.032-0.288,1.476-0.602c0.447-0.299,0.856-0.697,1.144-1.134l0.008-0.011
			c0.064-0.099,0.196-0.126,0.295-0.062s0.126,0.197,0.062,0.295c-0.005,0.007-0.01,0.013-0.015,0.02
			c-0.387,0.464-0.807,0.849-1.274,1.203c-0.235,0.173-0.49,0.317-0.748,0.461c-0.125,0.08-0.267,0.126-0.401,0.19
			c-0.134,0.066-0.277,0.108-0.422,0.151c-0.284,0.102-0.587,0.129-0.888,0.176c-0.304,0.02-0.613,0.039-0.921,0.006
			c-0.314-0.008-0.614-0.072-0.93-0.125c-0.162-0.018-0.297-0.088-0.456-0.118l-0.467-0.122l-0.1-0.068l-0.197-0.09h-0.001
			l0.743,0.13l-1.396,0.345c-0.479,0.071-0.955,0.146-1.436,0.19c-0.491-0.007-0.971,0.059-1.462-0.026
			c-0.244-0.033-0.488-0.046-0.729-0.096l-0.716-0.186c-0.237-0.062-0.46-0.18-0.688-0.269c-0.231-0.083-0.438-0.224-0.649-0.347
			c-0.421-0.25-0.802-0.567-1.133-0.919c-0.34-0.345-0.615-0.743-0.86-1.151c-0.232-0.418-0.427-0.848-0.554-1.316
			c-0.031-0.113,0.036-0.23,0.149-0.261c0.105-0.029,0.215,0.028,0.254,0.128L99.252,20.388z"/>
	</g>
	
		<path fill="none" stroke="#1D1D1B" stroke-width="0.7698" stroke-linecap="round" stroke-linejoin="round" stroke-miterlimit="10" d="
		M112.015,24.375c0,0,1.067,2.607-0.287,3.72c-1.354,1.113-3.071,0.124-3.071,0.124"/>
	
		<path fill="none" stroke="#1D1D1B" stroke-width="0.5132" stroke-linecap="round" stroke-linejoin="round" stroke-miterlimit="10" d="
		M109.636,29.875c0,0,1.226,0.719,2.335-0.572"/>
	
		<path fill="none" stroke="#1D1D1B" stroke-width="0.5132" stroke-linecap="round" stroke-linejoin="round" stroke-miterlimit="10" d="
		M101.656,29.502c0.146,0.153,0.262,1.791,2.13,1.662"/>
	
		<path fill="none" stroke="#1D1D1B" stroke-width="0.5132" stroke-linecap="round" stroke-linejoin="round" stroke-miterlimit="10" d="
		M101.497,31.009c0,0,0.229,0.666,1.017,0.723"/>
	
		<ellipse fill="#1D1D1B" stroke="#1D1D1B" stroke-width="0.7698" stroke-linecap="round" stroke-linejoin="round" stroke-miterlimit="10" cx="107.408" cy="28.216" rx="0.798" ry="0.847"/>
	
		<ellipse transform="matrix(-0.9999 -0.0145 0.0145 -0.9999 222.1299 56.521)" fill="#1D1D1B" stroke="#1D1D1B" stroke-width="0.7698" stroke-linecap="round" stroke-linejoin="round" stroke-miterlimit="10" cx="111.27" cy="27.455" rx="0.707" ry="0.749"/>
	
		<path fill="none" stroke="#1D1D1B" stroke-width="0.7698" stroke-linecap="round" stroke-linejoin="round" stroke-miterlimit="10" d="
		M108.042,25.213c0,0,1.627,3.175-1.16,4.601c-2.79,1.418-6.958-1.5-4.324-5.69"/>
</g>
</svg>
